<svg width="17" height="17" viewBox="0 0 17 17" fill="none" xmlns="http://www.w3.org/2000/svg">
<path d="M15.3 3.105C15.2998 2.81923 15.1889 2.54465 14.9905 2.33896C14.7921 2.13328 14.5217 2.01251 14.2361 2.00204V2H2.86412V2.00306C2.8444 2.00204 2.82485 2 2.80496 2C2.57644 2.00015 2.35358 2.07115 2.16708 2.20322C1.98058 2.33529 1.83962 2.52193 1.7636 2.73745C1.68759 2.95296 1.68026 3.18674 1.74264 3.40659C1.80501 3.62644 1.93401 3.82154 2.11187 3.96503L7.23567 9.08866L7.2355 12.2505V12.2767H7.23805C7.24235 12.3742 7.27131 12.469 7.32225 12.5522C7.37318 12.6355 7.44441 12.7045 7.52926 12.7527L7.52773 12.7554L8.86597 13.528C8.87719 13.5359 8.8896 13.5415 8.90133 13.5484L8.90609 13.5512V13.551C8.99143 13.6003 9.08935 13.6307 9.19509 13.6307C9.27136 13.6307 9.34689 13.6157 9.41735 13.5866C9.48782 13.5574 9.55184 13.5146 9.60577 13.4607C9.6597 13.4068 9.70248 13.3427 9.73165 13.2723C9.76083 13.2018 9.77584 13.1263 9.77581 13.05C9.77581 13.0347 9.77241 13.0203 9.77139 13.0053H9.77581V9.09342L14.9467 3.9227L14.9416 3.9176C15.0545 3.81449 15.1447 3.68898 15.2064 3.54906C15.2681 3.40915 15.3 3.25791 15.3 3.105ZM5.48229 4.21H5.48467L5.48484 4.21255L5.48229 4.21Z" fill="#7A7999"/>
</svg>
