<svg width="15" height="13" viewBox="0 0 15 13" fill="none" xmlns="http://www.w3.org/2000/svg">
<path d="M14.1747 1.07542C13.6245 0.525313 12.9623 0.250244 12.1873 0.250244H9.06254C8.97778 0.250244 8.91105 0.271245 8.86235 0.313693C8.8134 0.356003 8.78087 0.419486 8.76473 0.504141C8.74834 0.588762 8.73873 0.665208 8.73555 0.733548C8.73227 0.801854 8.73381 0.888185 8.74048 0.992302C8.74684 1.09649 8.75009 1.16158 8.75009 1.18771C8.76962 1.23984 8.77632 1.28382 8.76962 1.31957C8.76309 1.35524 8.7859 1.38466 8.83796 1.4074C8.88995 1.43018 8.91591 1.44814 8.91591 1.46107C8.91591 1.474 8.9534 1.48371 9.02827 1.49031C9.10318 1.49688 9.14077 1.50003 9.14077 1.50003H9.26777H9.37524H12.1878C12.6174 1.50003 12.9851 1.65295 13.2911 1.95911C13.5973 2.26507 13.7502 2.6328 13.7502 3.06257V9.93749C13.7502 10.3672 13.5973 10.7349 13.2911 11.0408C12.9852 11.3469 12.6174 11.4999 12.1878 11.4999H9.06299C8.97823 11.4999 8.91126 11.5211 8.86279 11.5633C8.81388 11.6058 8.78132 11.6692 8.76507 11.7537C8.74879 11.8384 8.73897 11.915 8.73583 11.9833C8.73268 12.0515 8.73408 12.1378 8.74075 12.242C8.74742 12.3462 8.7506 12.4112 8.7506 12.4372C8.7506 12.522 8.78125 12.595 8.84319 12.6571C8.9051 12.7189 8.97826 12.7498 9.06302 12.7498H12.1878C12.9625 12.7498 13.625 12.4747 14.1749 11.9243C14.725 11.3744 15.0001 10.7119 15.0001 9.93722V3.06244C14.9998 2.28768 14.7247 1.62535 14.1747 1.07542Z" fill="#E3E6E9"/>
<path d="M11.5627 6.49997C11.5627 6.33073 11.5006 6.18416 11.377 6.06045L6.06452 0.747901C5.94083 0.624356 5.79447 0.562378 5.62509 0.562378C5.45572 0.562378 5.30929 0.624356 5.18557 0.747901C5.06192 0.871617 5.00005 1.01825 5.00005 1.18742V3.99989H0.625107C0.455728 3.99989 0.309232 4.06187 0.18555 4.18541C0.0618678 4.30916 6.10352e-05 4.45569 6.10352e-05 4.62497V8.37493C6.10352e-05 8.54421 0.0618678 8.69074 0.185584 8.81439C0.309369 8.93787 0.455865 9.00001 0.625141 9.00001H5.00005V11.8124C5.00005 11.9816 5.06192 12.1283 5.18557 12.2519C5.30943 12.3756 5.45585 12.4375 5.62509 12.4375C5.79437 12.4375 5.94083 12.3756 6.06452 12.2519L11.377 6.93956C11.5006 6.81571 11.5627 6.66914 11.5627 6.49997Z" fill="#E3E6E9"/>
</svg>
