<svg width="11" height="13" viewBox="0 0 11 13" fill="none" xmlns="http://www.w3.org/2000/svg">
<path d="M10.8328 11.4122L8.12106 8.45258C8.81829 7.58281 9.2003 6.48845 9.2003 5.34917C9.2003 2.68736 7.13663 0.521729 4.60015 0.521729C2.06367 0.521729 0 2.68736 0 5.34917C0 8.01098 2.06367 10.1766 4.60015 10.1766C5.55238 10.1766 6.45981 9.87521 7.23563 9.30305L9.96792 12.2852C10.0821 12.4096 10.2357 12.4783 10.4003 12.4783C10.5561 12.4783 10.7039 12.4159 10.8162 12.3026C11.0546 12.0618 11.0622 11.6626 10.8328 11.4122ZM4.60015 1.78106C6.47501 1.78106 8.00026 3.38167 8.00026 5.34917C8.00026 7.31667 6.47501 8.91728 4.60015 8.91728C2.72529 8.91728 1.20004 7.31667 1.20004 5.34917C1.20004 3.38167 2.72529 1.78106 4.60015 1.78106Z" fill="#828282"/>
</svg>
