<svg width="23" height="25" viewBox="0 0 23 25" fill="none" xmlns="http://www.w3.org/2000/svg">
<path d="M2.72144 17.2238C1.84794 19.5856 1.34879 21.2017 1.09922 22.0718C0.350504 25.0553 -0.148641 25.6768 2.47187 24.3094C5.09238 22.942 17.4462 15.9807 20.3163 14.489C23.9351 12.5 23.9351 12.6243 20.0667 10.511C17.1967 8.77072 4.84281 2.05801 2.59666 0.690608C0.350504 -0.676796 0.475291 -0.0552485 1.09922 2.92818C1.34879 3.92265 1.84794 5.53867 2.72144 7.77624C3.34538 9.39227 4.71802 10.6354 6.46503 10.884L13.7026 12.2514C13.8274 12.2514 13.8274 12.3757 13.8274 12.3757C13.8274 12.3757 13.8274 12.5 13.7026 12.5L6.46503 13.8674C4.84281 14.3646 3.34538 15.4834 2.72144 17.2238Z" fill="#7A7999"/>
</svg>
