<svg width="73" height="12" viewBox="0 0 73 12" fill="none" xmlns="http://www.w3.org/2000/svg">
<path d="M40.6 2H40C40 1.8 39.8 1.4 39.6 1.2C39.4 1 39.1 0.8 38.5 0.8C38.3 0.8 38.1 0.8 37.9 0.9C37.8 0.7 37.7 0.6 37.6 0.4C37.4 0.2 37.1 0 36.5 0C35.7 0 35.3 0.5 35.1 1C35 1 34.8 0.9 34.6 0.9C34.1 0.9 33.8 1.1 33.5 1.3C33 1.9 33 2.7 33 2.8V3.2C32.4 3.2 31.9 3.4 31.6 3.7C31 4.4 31 5.3 31 6.5V7.2C31 8.6 31.7 9.3 32.4 10L32.7 10.4C34 11.6 35.2 12 37.8 12C40.7 12 42 10.4 42 6.9V4.4C42 3.7 41.8 2.3 40.6 2ZM38.5 1.8C38.9 1.8 39 2.2 39 2.4V3.2C39 3.5 39.2 3.7 39.4 3.7C39.7 3.7 39.9 3.6 39.9 3.3C39.9 3.3 39.9 2.9 40.3 3C40.9 3.2 41 4.1 41 4.3V6.9C41 10.3 39.7 11 37.8 11C35.4 11 34.5 10.7 33.5 9.7L33.1 9.3C32.4 8.6 32 8.2 32 7.2V6.6C32 5.6 32 4.8 32.3 4.5C32.4 4.3 32.7 4.2 33 4.2V5L32.7 6.2C32.7 6.3 32.7 6.3 32.8 6.3C32.9 6.4 33 6.3 33 6.3L34 5.1V3C34 2.9 34 2.4 34.2 2.2C34.3 2.1 34.4 2 34.6 2C34.9 2 35 2.2 35 2.4V2.8C35 3 35.2 3.3 35.5 3.3C35.8 3.3 36 3 36 2.8V1.5C36 1.4 36 1 36.5 1C36.8 1 37 1.2 37 1.5V2.7C37 3 37.2 3.3 37.5 3.3C37.8 3.3 38 3 38 2.8V2.3C38 2 38.2 1.8 38.5 1.8Z" fill="#E3E6E9"/>
<path d="M72.2121 7.21213C72.3293 7.09497 72.3293 6.90503 72.2121 6.78787L70.3029 4.87868C70.1858 4.76152 69.9958 4.76152 69.8787 4.87868C69.7615 4.99584 69.7615 5.18579 69.8787 5.30294L71.5757 7L69.8787 8.69706C69.7615 8.81421 69.7615 9.00416 69.8787 9.12132C69.9958 9.23848 70.1858 9.23848 70.3029 9.12132L72.2121 7.21213ZM51 7.3H52.75V6.7H51V7.3ZM54.5 7.3H58V6.7H54.5V7.3ZM59.75 7.3H63.25V6.7H59.75V7.3ZM65 7.3H68.5V6.7H65V7.3ZM70.25 7.3H72V6.7H70.25V7.3ZM72.4243 7.42426C72.6586 7.18995 72.6586 6.81005 72.4243 6.57574L68.6059 2.75736C68.3716 2.52304 67.9917 2.52304 67.7574 2.75736C67.523 2.99167 67.523 3.37157 67.7574 3.60589L71.1515 7L67.7574 10.3941C67.523 10.6284 67.523 11.0083 67.7574 11.2426C67.9917 11.477 68.3716 11.477 68.6059 11.2426L72.4243 7.42426ZM51 7.6H52.75V6.4H51V7.6ZM54.5 7.6H58V6.4H54.5V7.6ZM59.75 7.6H63.25V6.4H59.75V7.6ZM65 7.6H68.5V6.4H65V7.6ZM70.25 7.6H72V6.4H70.25V7.6Z" fill="#909090"/>
<path d="M0.787868 6.78787C0.670712 6.90503 0.670712 7.09498 0.787869 7.21213L2.69706 9.12132C2.81421 9.23848 3.00416 9.23848 3.12132 9.12132C3.23848 9.00416 3.23848 8.81422 3.12132 8.69706L1.42426 7L3.12132 5.30295C3.23848 5.18579 3.23848 4.99584 3.12132 4.87868C3.00416 4.76152 2.81421 4.76152 2.69706 4.87868L0.787868 6.78787ZM21 6.7L18.7778 6.7L18.7778 7.3L21 7.3L21 6.7ZM16.5556 6.7L12.1111 6.7L12.1111 7.3L16.5556 7.3L16.5556 6.7ZM9.88889 6.7L5.44444 6.7L5.44444 7.3L9.88889 7.3L9.88889 6.7ZM3.22222 6.7L1 6.7L1 7.3L3.22222 7.3L3.22222 6.7ZM0.575735 6.57574C0.341421 6.81005 0.341421 7.18995 0.575735 7.42427L4.39411 11.2426C4.62843 11.477 5.00833 11.477 5.24264 11.2426C5.47696 11.0083 5.47696 10.6284 5.24264 10.3941L1.84853 7L5.24264 3.60589C5.47696 3.37157 5.47696 2.99168 5.24264 2.75736C5.00833 2.52305 4.62843 2.52305 4.39411 2.75736L0.575735 6.57574ZM21 6.4L18.7778 6.4L18.7778 7.6L21 7.6L21 6.4ZM16.5556 6.4L12.1111 6.4L12.1111 7.6L16.5556 7.6L16.5556 6.4ZM9.88889 6.4L5.44444 6.4L5.44444 7.6L9.88889 7.6L9.88889 6.4ZM3.22222 6.4L1 6.4L1 7.6L3.22222 7.6L3.22222 6.4Z" fill="#909090"/>
</svg>
